<svg width="95" height="39" viewBox="0 0 95 39" fill="none" xmlns="http://www.w3.org/2000/svg">
<rect width="95" height="39" fill="white"/>
<path d="M21.7539 26.2727H22.5692V25.1641C24.6573 25.0199 25.8306 23.7869 25.8306 22.2358C25.8306 20.3267 24.0209 19.7102 22.967 19.4318L22.5692 19.3224V15.7876C23.6232 15.892 24.3888 16.4588 24.4982 17.3636H25.6914C25.6417 15.9119 24.3689 14.8082 22.5692 14.6889V13.5455H21.7539V14.7038C20.0486 14.8778 18.7709 15.9616 18.7709 17.5227C18.7709 18.8949 19.7653 19.7102 21.3562 20.1676L21.7539 20.282V24.0455C20.7099 23.9361 19.8547 23.3991 19.7653 22.375H18.4925C18.6069 23.9411 19.8001 25.0348 21.7539 25.1641V26.2727ZM22.5692 24.0455V20.5156L22.609 20.5256C23.6829 20.8239 24.6374 21.2017 24.6374 22.2159C24.6374 23.2152 23.7724 23.9112 22.5692 24.0455ZM21.7539 19.1037C20.9982 18.8899 19.9641 18.4723 19.9641 17.4631C19.9641 16.603 20.6601 15.9467 21.7539 15.8026V19.1037ZM31.0563 25H37.4796V23.9062H32.7466V23.8267L35.0336 21.3807C36.7836 19.5064 37.3006 18.6314 37.3006 17.5028C37.3006 15.9318 36.0279 14.679 34.2381 14.679C32.4533 14.679 31.0961 15.892 31.0961 17.6818H32.2693C32.2693 16.5234 33.0201 15.7528 34.1983 15.7528C35.302 15.7528 36.1472 16.429 36.1472 17.5028C36.1472 18.4425 35.5953 19.1385 34.4171 20.4261L31.0563 24.1051V25ZM40.1278 25.0795C40.62 25.0795 41.0227 24.6768 41.0227 24.1847C41.0227 23.6925 40.62 23.2898 40.1278 23.2898C39.6357 23.2898 39.233 23.6925 39.233 24.1847C39.233 24.6768 39.6357 25.0795 40.1278 25.0795ZM45.1911 14.8182H43.9581L41.4127 16.5085V17.7614L43.8984 16.1108H43.9581V25H45.1911V14.8182ZM51.0211 25.1392C52.9601 25.1392 54.3819 23.7074 54.3819 21.7585C54.3819 19.7848 53.0098 18.3381 51.1405 18.3381C50.4544 18.3381 49.7882 18.5817 49.3706 18.9148H49.3109L49.6689 15.9119H53.9246V14.8182H48.6348L48.0183 19.8295L49.1717 19.9688C49.5943 19.6655 50.3152 19.4467 50.9416 19.4517C52.2392 19.4616 53.1888 20.446 53.1888 21.7784C53.1888 23.0859 52.274 24.0455 51.0211 24.0455C49.9771 24.0455 49.1469 23.3743 49.0524 22.4545H47.8592C47.9338 24.0057 49.2712 25.1392 51.0211 25.1392Z" fill="#757575"/>
<path d="M82.5 22.5L77.75 17.75L75.25 20.25L71.5 16.5" stroke="#F5450D" stroke-linecap="round" stroke-linejoin="round"/>
<path d="M79.5 22.5H82.5V19.5" stroke="#F5450D" stroke-linecap="round" stroke-linejoin="round"/>
</svg>
