<svg width="95" height="39" viewBox="0 0 95 39" fill="none" xmlns="http://www.w3.org/2000/svg">
<path d="M0 0H95V31C95 35.4183 91.4183 39 87 39H0V0Z" fill="white"/>
<path d="M19.956 26.2727H20.7714V25.1641C22.8594 25.0199 24.0327 23.7869 24.0327 22.2358C24.0327 20.3267 22.2231 19.7102 21.1691 19.4318L20.7714 19.3224V15.7876C21.8254 15.892 22.591 16.4588 22.7004 17.3636H23.8935C23.8438 15.9119 22.5711 14.8082 20.7714 14.6889V13.5455H19.956V14.7038C18.2508 14.8778 16.9731 15.9616 16.9731 17.5227C16.9731 18.8949 17.9674 19.7102 19.5583 20.1676L19.956 20.282V24.0455C18.912 23.9361 18.0569 23.3991 17.9674 22.375H16.6947C16.809 23.9411 18.0022 25.0348 19.956 25.1641V26.2727ZM20.7714 24.0455V20.5156L20.8112 20.5256C21.885 20.8239 22.8396 21.2017 22.8396 22.2159C22.8396 23.2152 21.9745 23.9112 20.7714 24.0455ZM19.956 19.1037C19.2004 18.8899 18.1663 18.4723 18.1663 17.4631C18.1663 16.603 18.8623 15.9467 19.956 15.8026V19.1037ZM29.0198 22.9119H33.8124V25H34.9857V22.9119H36.3777V21.8182H34.9857V14.8182H33.4942L29.0198 21.8977V22.9119ZM33.8124 21.8182H30.3522V21.7386L33.7329 16.3892H33.8124V21.8182ZM38.3573 25.0795C38.8495 25.0795 39.2522 24.6768 39.2522 24.1847C39.2522 23.6925 38.8495 23.2898 38.3573 23.2898C37.8651 23.2898 37.4625 23.6925 37.4625 24.1847C37.4625 24.6768 37.8651 25.0795 38.3573 25.0795ZM44.2036 14.6591C42.1354 14.6392 40.803 16.1903 40.803 18.0795C40.803 20.0483 42.2547 21.4602 44.0047 21.4602C45.0587 21.4602 45.9536 20.9432 46.5104 20.108H46.5899C46.5899 22.6136 45.6155 24.0455 44.0445 24.0455C42.9706 24.0455 42.3144 23.3693 42.0956 22.4347H40.8826C41.1212 24.0455 42.3343 25.1392 44.0445 25.1392C46.3314 25.1392 47.7434 23.1108 47.7434 19.4915C47.7434 15.733 45.874 14.679 44.2036 14.6591ZM44.2036 15.7528C45.4763 15.7528 46.411 16.8466 46.411 18.0597C46.411 19.2727 45.4166 20.3665 44.1638 20.3665C42.911 20.3665 41.9962 19.3523 41.9962 18.0795C41.9962 16.7869 42.9507 15.7528 44.2036 15.7528ZM52.7991 25.1392C54.8574 25.1641 56.1997 23.6129 56.1997 21.7188C56.1997 19.75 54.743 18.3381 52.998 18.3381C51.949 18.3381 51.0491 18.8501 50.4923 19.6903H50.4127C50.4177 17.1896 51.3822 15.7528 52.9582 15.7528C54.0321 15.7528 54.6784 16.429 54.9071 17.3636H56.1201C55.8716 15.7628 54.6684 14.6591 52.9582 14.6591C50.6663 14.6591 49.2593 16.6875 49.2593 20.3068C49.2593 24.0703 51.1287 25.1193 52.7991 25.1392ZM52.7991 24.0455C51.5214 24.0455 50.5868 22.9567 50.5917 21.7386C50.5967 20.5206 51.5761 19.4318 52.8389 19.4318C54.0868 19.4318 55.0065 20.456 55.0065 21.7188C55.0065 23.0114 54.047 24.0455 52.7991 24.0455Z" fill="#757575"/>
<path d="M82.5 22.5L77.75 17.75L75.25 20.25L71.5 16.5" stroke="#F5450D" stroke-linecap="round" stroke-linejoin="round"/>
<path d="M79.5 22.5H82.5V19.5" stroke="#F5450D" stroke-linecap="round" stroke-linejoin="round"/>
</svg>
